<svg width="222" height="47" viewBox="0 0 222 47" fill="none" xmlns="http://www.w3.org/2000/svg">
<path d="M53.2781 24V4.78723H56.956L65.1351 18.346H63.1864L71.2283 4.78723H74.8787L74.9336 24H70.7617L70.7343 11.1823H71.5028L65.0802 21.9689H63.0766L56.5168 11.1823H57.45V24H53.2781ZM88.8238 24.3294C87.3051 24.3294 85.8962 24.0823 84.597 23.5883C83.3162 23.0943 82.2 22.3989 81.2485 21.5023C80.3153 20.6057 79.5834 19.5536 79.0528 18.346C78.5404 17.1383 78.2843 15.8209 78.2843 14.3936C78.2843 12.9664 78.5404 11.6489 79.0528 10.4413C79.5834 9.23362 80.3245 8.18149 81.276 7.28489C82.2275 6.3883 83.3436 5.69298 84.6245 5.19893C85.9053 4.70489 87.296 4.45787 88.7964 4.45787C90.3151 4.45787 91.7058 4.70489 92.9683 5.19893C94.2492 5.69298 95.3562 6.3883 96.2894 7.28489C97.2409 8.18149 97.9819 9.23362 98.5126 10.4413C99.0432 11.6306 99.3085 12.9481 99.3085 14.3936C99.3085 15.8209 99.0432 17.1474 98.5126 18.3734C97.9819 19.5811 97.2409 20.6332 96.2894 21.5298C95.3562 22.4081 94.2492 23.0943 92.9683 23.5883C91.7058 24.0823 90.3243 24.3294 88.8238 24.3294ZM88.7964 20.5417C89.6564 20.5417 90.4432 20.3953 91.1568 20.1026C91.8887 19.8098 92.5292 19.3889 93.0781 18.84C93.627 18.2911 94.0479 17.6415 94.3407 16.8913C94.6517 16.1411 94.8073 15.3085 94.8073 14.3936C94.8073 13.4787 94.6517 12.6462 94.3407 11.896C94.0479 11.1457 93.627 10.4962 93.0781 9.94723C92.5475 9.3983 91.9162 8.97745 91.1843 8.68468C90.4524 8.39191 89.6564 8.24553 88.7964 8.24553C87.9364 8.24553 87.1404 8.39191 86.4085 8.68468C85.6949 8.97745 85.0636 9.3983 84.5147 9.94723C83.9658 10.4962 83.5358 11.1457 83.2247 11.896C82.9319 12.6462 82.7855 13.4787 82.7855 14.3936C82.7855 15.2902 82.9319 16.1228 83.2247 16.8913C83.5358 17.6415 83.9566 18.2911 84.4873 18.84C85.0362 19.3889 85.6766 19.8098 86.4085 20.1026C87.1404 20.3953 87.9364 20.5417 88.7964 20.5417ZM107.798 24L99.5086 4.78723H104.312L111.558 21.8043H108.731L116.086 4.78723H120.505L112.189 24H107.798ZM122.11 24V4.78723H126.556V24H122.11ZM135.205 12.5272H144.455V15.9855H135.205V12.5272ZM135.534 20.4319H145.992V24H131.116V4.78723H145.635V8.35532H135.534V20.4319ZM157.303 24V4.78723H161.749V20.377H171.383V24H157.303ZM173.867 24V4.78723H178.314V24H173.867ZM182.873 24V4.78723H186.551L197.887 18.6204H196.102V4.78723H200.494V24H196.844L185.481 10.1668H187.265V24H182.873ZM209.129 12.5272H218.379V15.9855H209.129V12.5272ZM209.459 20.4319H219.916V24H205.04V4.78723H219.559V8.35532H209.459V20.4319ZM57.7336 42.0732C56.8919 42.0732 56.1295 41.878 55.4464 41.4877C54.7755 41.0973 54.2387 40.5423 53.8362 39.8226C53.4458 39.0906 53.2506 38.2245 53.2506 37.2243C53.2506 36.224 53.4458 35.364 53.8362 34.6443C54.2387 33.9123 54.7755 33.3512 55.4464 32.9609C56.1295 32.5705 56.8919 32.3753 57.7336 32.3753C58.6363 32.3753 59.4414 32.5827 60.1489 32.9974C60.8687 33.4 61.4298 33.9672 61.8323 34.6991C62.2471 35.4311 62.4545 36.2728 62.4545 37.2243C62.4545 38.1757 62.2471 39.0174 61.8323 39.7494C61.4298 40.4813 60.8687 41.0546 60.1489 41.4694C59.4414 41.8719 58.6363 42.0732 57.7336 42.0732ZM52.9396 45.5498V32.4485H53.8179V35.5774L53.6715 37.2426L53.8545 38.9077V45.5498H52.9396ZM57.6787 41.2498C58.4106 41.2498 59.0694 41.0851 59.6549 40.7557C60.2404 40.4142 60.6979 39.9384 61.0272 39.3285C61.3688 38.7186 61.5396 38.0172 61.5396 37.2243C61.5396 36.4191 61.3688 35.7177 61.0272 35.12C60.6979 34.5101 60.2404 34.0404 59.6549 33.7111C59.0694 33.3695 58.4106 33.1987 57.6787 33.1987C56.9468 33.1987 56.2881 33.3695 55.7026 33.7111C55.1292 34.0404 54.6718 34.5101 54.3302 35.12C54.0009 35.7177 53.8362 36.4191 53.8362 37.2243C53.8362 38.0172 54.0009 38.7186 54.3302 39.3285C54.6718 39.9384 55.1292 40.4142 55.7026 40.7557C56.2881 41.0851 56.9468 41.2498 57.6787 41.2498ZM78.2786 42V32.4485H79.1934V42H78.2786ZM78.736 30.1247C78.5286 30.1247 78.3517 30.0515 78.2054 29.9051C78.059 29.7587 77.9858 29.5879 77.9858 29.3928C77.9858 29.1854 78.059 29.0085 78.2054 28.8621C78.3517 28.7157 78.5286 28.6426 78.736 28.6426C78.9556 28.6426 79.1325 28.7157 79.2666 28.8621C79.413 28.9963 79.4862 29.1671 79.4862 29.3745C79.4862 29.5818 79.413 29.7587 79.2666 29.9051C79.1325 30.0515 78.9556 30.1247 78.736 30.1247ZM99.8287 42.0732C98.9016 42.0732 98.0721 41.8658 97.3402 41.4511C96.6205 41.0363 96.0472 40.463 95.6202 39.7311C95.2055 38.9991 94.9981 38.1635 94.9981 37.2243C94.9981 36.2728 95.2055 35.4311 95.6202 34.6991C96.0472 33.9672 96.6205 33.4 97.3402 32.9974C98.0721 32.5827 98.9016 32.3753 99.8287 32.3753C100.597 32.3753 101.293 32.5217 101.915 32.8145C102.549 33.1072 103.061 33.5464 103.452 34.1319L102.775 34.626C102.433 34.138 102.006 33.7782 101.494 33.5464C100.981 33.3146 100.426 33.1987 99.8287 33.1987C99.0846 33.1987 98.4137 33.3695 97.816 33.7111C97.2304 34.0404 96.7669 34.5101 96.4253 35.12C96.096 35.7177 95.9313 36.4191 95.9313 37.2243C95.9313 38.0294 96.096 38.7369 96.4253 39.3468C96.7669 39.9445 97.2304 40.4142 97.816 40.7557C98.4137 41.0851 99.0846 41.2498 99.8287 41.2498C100.426 41.2498 100.981 41.1339 101.494 40.9021C102.006 40.6704 102.433 40.3105 102.775 39.8226L103.452 40.3166C103.061 40.9021 102.549 41.3413 101.915 41.634C101.293 41.9268 100.597 42.0732 99.8287 42.0732ZM122.071 42.0732C121.229 42.0732 120.582 41.8414 120.131 41.3779C119.692 40.9143 119.472 40.28 119.472 39.4749V30.3626H120.387V39.3834C120.387 39.9933 120.54 40.463 120.845 40.7923C121.15 41.1217 121.589 41.2864 122.162 41.2864C122.76 41.2864 123.254 41.1095 123.644 40.7557L124.029 41.3962C123.785 41.6279 123.486 41.7987 123.132 41.9085C122.79 42.0183 122.437 42.0732 122.071 42.0732ZM117.716 33.2353V32.4485H123.425V33.2353H117.716ZM143.451 42.0732C142.633 42.0732 141.926 41.9268 141.328 41.634C140.73 41.3291 140.267 40.8777 139.937 40.28C139.62 39.6701 139.462 38.9199 139.462 38.0294V32.4485H140.377V37.9562C140.377 39.0296 140.651 39.847 141.2 40.4081C141.749 40.9692 142.523 41.2498 143.524 41.2498C144.243 41.2498 144.866 41.0973 145.39 40.7923C145.915 40.4874 146.317 40.0604 146.598 39.5115C146.878 38.9504 147.019 38.2916 147.019 37.5353V32.4485H147.934V42H147.055V39.3468L147.183 39.6579C146.903 40.402 146.433 40.9936 145.774 41.4328C145.128 41.8597 144.353 42.0732 143.451 42.0732ZM164.803 42V32.4485H165.681V35.0651L165.59 34.7723C165.858 34.0038 166.31 33.4122 166.944 32.9974C167.578 32.5827 168.371 32.3753 169.323 32.3753V33.2719C169.286 33.2719 169.25 33.2719 169.213 33.2719C169.176 33.2597 169.14 33.2536 169.103 33.2536C168.042 33.2536 167.212 33.5891 166.615 34.26C166.017 34.9187 165.718 35.8397 165.718 37.023V42H164.803ZM188.625 42.0732C187.661 42.0732 186.807 41.8658 186.063 41.4511C185.331 41.0363 184.752 40.463 184.325 39.7311C183.91 38.9991 183.703 38.1635 183.703 37.2243C183.703 36.2728 183.898 35.4372 184.288 34.7174C184.691 33.9855 185.24 33.4122 185.935 32.9974C186.63 32.5827 187.411 32.3753 188.277 32.3753C189.143 32.3753 189.918 32.5766 190.601 32.9791C191.296 33.3817 191.839 33.9489 192.23 34.6809C192.632 35.4006 192.833 36.2362 192.833 37.1877C192.833 37.2243 192.827 37.2669 192.815 37.3157C192.815 37.3523 192.815 37.395 192.815 37.4438H184.38V36.7302H192.321L191.955 37.0779C191.967 36.3338 191.809 35.6689 191.479 35.0834C191.162 34.4857 190.729 34.0221 190.18 33.6928C189.631 33.3512 188.997 33.1804 188.277 33.1804C187.57 33.1804 186.935 33.3512 186.374 33.6928C185.825 34.0221 185.392 34.4857 185.075 35.0834C184.758 35.6689 184.599 36.3399 184.599 37.0962V37.2609C184.599 38.0416 184.77 38.7369 185.112 39.3468C185.465 39.9445 185.947 40.4142 186.557 40.7557C187.167 41.0851 187.862 41.2498 188.643 41.2498C189.253 41.2498 189.82 41.14 190.345 40.9204C190.882 40.7009 191.333 40.3654 191.699 39.914L192.23 40.5179C191.815 41.0302 191.29 41.4206 190.656 41.6889C190.034 41.9451 189.357 42.0732 188.625 42.0732ZM211.071 42.0732C210.278 42.0732 209.533 41.9573 208.838 41.7255C208.155 41.4938 207.624 41.201 207.246 40.8472L207.667 40.1153C208.033 40.4325 208.521 40.707 209.131 40.9387C209.741 41.1583 210.4 41.2681 211.107 41.2681C212.107 41.2681 212.827 41.1034 213.266 40.774C213.705 40.4447 213.925 40.0116 213.925 39.4749C213.925 39.0845 213.809 38.7796 213.577 38.56C213.358 38.3282 213.059 38.1513 212.681 38.0294C212.303 37.9074 211.888 37.8098 211.436 37.7366C210.985 37.6512 210.534 37.5597 210.082 37.4621C209.631 37.3645 209.216 37.2243 208.838 37.0413C208.46 36.8583 208.155 36.6082 207.923 36.2911C207.704 35.9617 207.594 35.5287 207.594 34.9919C207.594 34.504 207.728 34.0648 207.996 33.6745C208.265 33.2841 208.667 32.973 209.204 32.7413C209.741 32.4973 210.412 32.3753 211.217 32.3753C211.815 32.3753 212.412 32.4607 213.01 32.6315C213.62 32.8023 214.114 33.0279 214.492 33.3085L214.071 34.0404C213.669 33.7355 213.217 33.5159 212.717 33.3817C212.217 33.2475 211.711 33.1804 211.199 33.1804C210.271 33.1804 209.588 33.3512 209.149 33.6928C208.722 34.0343 208.509 34.4613 208.509 34.9736C208.509 35.3762 208.619 35.6994 208.838 35.9434C209.07 36.1752 209.375 36.3582 209.753 36.4923C210.131 36.6143 210.546 36.718 210.997 36.8034C211.449 36.8766 211.9 36.962 212.351 37.0596C212.803 37.1572 213.217 37.2974 213.596 37.4804C213.974 37.6512 214.273 37.8952 214.492 38.2123C214.724 38.5173 214.84 38.9321 214.84 39.4566C214.84 39.9811 214.693 40.4386 214.401 40.8289C214.12 41.2193 213.699 41.5243 213.138 41.7438C212.577 41.9634 211.888 42.0732 211.071 42.0732Z" fill="#0B0A0A"/>
<path d="M1.88146 21.2187C1.77078 20.5915 1.77693 19.372 1.88146 18.8146C3.13576 19.2327 3.65839 19.0236 3.65839 19.0236C3.65839 19.0236 4.39006 16.4105 4.49459 14.32C4.59912 12.2295 2.50861 11.9159 1.46335 11.9159C0.627152 11.9159 0.139367 13.0308 0 13.5883V0H23.4137V13.3792C23.553 15.0168 23.4764 18.6264 22.0548 19.9643C20.2779 21.6367 18.71 20.5915 18.2919 20.2779C17.4557 19.6508 16.7241 16.8286 18.0829 15.0517C19.4417 13.2747 18.6055 10.6616 17.3512 9.92991C16.3218 9.32941 13.6928 9.09371 12.7521 10.6616C11.8114 12.2295 12.543 17.2467 12.543 17.2467C12.543 17.2467 13.2747 17.5603 14.1109 17.2467C14.4245 17.5603 14.3311 19.2216 13.5883 19.9643C12.6476 20.9051 9.92991 22.682 10.6616 22.9956C11.3933 23.3091 19.3372 23.8318 22.2639 22.9956C25.1906 22.1594 30.3124 13.4838 30.6259 12.7521C30.9395 12.0204 30.4169 11.7068 29.9988 11.6023C29.5807 11.4978 27.8383 12.9258 28.3264 13.9019C28.5354 14.32 28.9107 14.99 28.6399 15.2607C28.1173 15.7833 26.2417 13.9947 27.1766 12.1249C28.1173 10.2435 29.7897 9.51181 30.9395 9.61633C32.0893 9.72086 32.6119 10.5571 32.6119 10.5571C32.6119 10.5571 32.7914 10.3172 33.2391 8.6756C33.5526 7.52583 34.5979 7.38646 35.4341 7.73488C36.6884 8.2575 35.5386 10.8706 35.5386 10.8706C35.5386 10.8706 34.8069 10.9403 34.5979 10.6616L34.2843 11.3933C35.6431 12.0204 34.9115 13.2747 34.8069 13.5883C34.7024 13.9019 34.8069 14.7381 35.4341 13.7973C36.2703 11.9159 36.6884 12.0204 37.002 12.334C37.3788 12.7109 36.6884 14.4245 35.3296 15.2607C34.2425 15.9297 33.483 15.2607 33.2391 14.8426L31.8802 17.2467C35.7477 16.6195 34.3888 18.6055 33.4481 19.3372C32.916 19.7511 31.9848 20.487 31.7757 20.8005C32.6816 20.5567 34.3888 21.2186 32.7164 21.6367C30.4902 22.1933 29.8943 22.0548 30.2078 21.4277C30.3124 21.2186 32.0893 19.1281 30.835 18.9191C29.8315 18.7518 25.539 22.2987 24.668 23.4137H46.6183V39.7196C46.4441 39.3364 42.1028 38.4444 40.3468 38.3608C38.1727 43.8797 35.3644 45.0853 31.5667 44.8414C29.7897 44.7273 28.7445 43.0644 27.8037 42.7509C27.0512 42.5 26.5146 43.2735 26.3404 43.6916C26.1313 42.2282 27.1766 41.4966 28.1173 41.8101C29.1853 42.1661 30.835 43.5871 31.5667 43.378C32.3769 43.1465 33.2391 40.9739 33.5526 39.6151C34.0544 39.6151 34.4585 39.2667 34.5979 39.0925C33.8662 38.2563 33.6015 37.5228 33.6572 36.6884C33.7617 35.1205 35.8522 31.4484 30.9395 29.9988C24.2499 28.0248 23.2046 34.0753 23.4137 37.002C22.7865 35.9567 18.2919 32.9255 12.0204 31.3576C5.74889 29.7897 2.50861 24.7725 1.88146 21.2187Z" fill="#0B0A0A"/>
<rect x="1.06426" y="1.06426" width="44.6988" height="44.6988" stroke="#0B0A0A" stroke-width="2.12852"/>
<path d="M23.4141 0.209473V46.6187" stroke="#0B0A0A"/>
<path d="M0.208984 23.4136L46.6182 23.4136" stroke="#0B0A0A" stroke-width="0.418101"/>
<path d="M8.78053 36.375C7.94433 35.5388 8.78053 31.8456 9.30315 30.1035C8.96868 35.3716 11.0452 32.7166 12.1253 30.7307C11.3588 32.9605 9.61673 37.2112 8.78053 36.375Z" fill="#0B0A0A"/>
<circle cx="15.675" cy="17.3156" r="0.522627" fill="#0B0A0A"/>
<circle cx="8.5" cy="37.5" r="0.5" fill="#0B0A0A"/>
</svg>
